<svg xmlns="http://www.w3.org/2000/svg" xmlns:xlink="http://www.w3.org/1999/xlink" width="135" zoomAndPan="magnify" viewBox="0 0 101.25 101.249999" height="135" preserveAspectRatio="xMidYMid meet" version="1.0"><defs><g/><clipPath id="id1"><path d="M 0 8.417969 L 22 8.417969 L 22 29 L 0 29 Z M 0 8.417969 " clip-rule="nonzero"/></clipPath><clipPath id="id2"><path d="M 92 28 L 100.503906 28 L 100.503906 34 L 92 34 Z M 92 28 " clip-rule="nonzero"/></clipPath><clipPath id="id3"><path d="M 46 88 L 54 88 L 54 91.800781 L 46 91.800781 Z M 46 88 " clip-rule="nonzero"/></clipPath></defs><g clip-path="url(#id1)"><path fill="rgb(93.328857%, 61.178589%, 4.708862%)" d="M 0.445312 9.304688 C 0.621094 10.332031 1.652344 12.023438 2.632812 12.886719 C 3.195312 13.386719 3.335938 13.398438 3.082031 12.925781 C 2.679688 12.148438 2.921875 11.546875 3.625 11.546875 C 4.101562 11.546875 4.125 11.574219 6.222656 14.265625 C 7.390625 15.765625 8.835938 17.507812 9.425781 18.132812 L 10.496094 19.273438 L 10.507812 21.261719 C 10.519531 23.441406 10.683594 24.457031 11.324219 26.382812 C 11.8125 27.847656 12.078125 28.375 12.355469 28.425781 C 12.542969 28.460938 12.566406 28.324219 12.566406 26.859375 C 12.566406 25.03125 12.792969 22.578125 12.96875 22.339844 C 13.207031 22.050781 13.636719 22.1875 14.363281 22.777344 L 15.105469 23.355469 L 15.03125 25.054688 L 14.953125 26.757812 L 15.71875 25.257812 C 17.175781 22.425781 18.546875 19.171875 19.804688 15.515625 C 20.417969 13.714844 21.398438 10.421875 21.335938 10.359375 C 21.308594 10.332031 21.046875 10.34375 20.746094 10.382812 C 20.242188 10.457031 20.167969 10.507812 19.664062 11.285156 C 18.410156 13.238281 17.515625 15.117188 16.535156 17.933594 C 15.757812 20.125 15.707031 20.160156 14.578125 19.183594 C 14.164062 18.820312 13.824219 18.433594 13.824219 18.308594 C 13.824219 17.707031 15.558594 13.300781 16.234375 12.199219 C 16.375 11.984375 16.449219 11.796875 16.398438 11.796875 C 16.234375 11.796875 14.980469 12.484375 14.261719 12.960938 C 12.820312 13.9375 11.925781 14.726562 11.613281 15.328125 C 11.398438 15.742188 11.222656 15.929688 11.058594 15.929688 C 10.910156 15.929688 9.414062 14.726562 7.515625 13.101562 C 3.273438 9.457031 2.757812 9.117188 0.933594 8.84375 L 0.355469 8.753906 Z M 0.445312 9.304688 " fill-opacity="1" fill-rule="nonzero"/></g><path fill="rgb(93.328857%, 61.178589%, 4.708862%)" d="M 76.382812 9.730469 C 73.316406 10.246094 70.328125 11.460938 66.960938 13.5625 C 65.152344 14.691406 61.621094 17.304688 61.621094 17.519531 C 61.621094 17.667969 64.109375 19.558594 64.308594 19.558594 C 64.359375 19.558594 64.9375 19.097656 65.578125 18.535156 C 67.085938 17.179688 69.234375 15.578125 70.941406 14.515625 C 72.699219 13.414062 76.445312 11.574219 77.136719 11.445312 C 77.675781 11.359375 77.699219 11.335938 78.101562 10.445312 L 78.503906 9.542969 L 77.914062 9.558594 C 77.585938 9.570312 76.894531 9.644531 76.382812 9.730469 Z M 76.382812 9.730469 " fill-opacity="1" fill-rule="nonzero"/><path fill="rgb(93.328857%, 61.178589%, 4.708862%)" d="M 80.464844 11.320312 C 77.726562 17.03125 76.808594 23.339844 77.890625 29.125 C 78.464844 32.21875 78.351562 31.96875 79.710938 33.34375 C 80.613281 34.246094 80.902344 34.496094 80.851562 34.257812 C 80.652344 33.457031 80.289062 31.527344 80.125 30.453125 C 79.875 28.675781 79.910156 23.152344 80.175781 21.351562 C 80.753906 17.582031 81.84375 14.027344 83.367188 11.007812 C 83.617188 10.53125 83.78125 10.121094 83.753906 10.09375 C 83.679688 10.019531 81.820312 9.667969 81.507812 9.667969 C 81.316406 9.667969 81.09375 10.03125 80.464844 11.320312 Z M 80.464844 11.320312 " fill-opacity="1" fill-rule="nonzero"/><path fill="rgb(93.328857%, 61.178589%, 4.708862%)" d="M 23.960938 10.257812 C 23.9375 10.308594 23.746094 10.921875 23.558594 11.609375 C 22.0625 17.167969 20.128906 22.203125 17.492188 27.359375 C 16.839844 28.648438 16.324219 29.726562 16.347656 29.75 C 16.375 29.789062 16.550781 29.839844 16.726562 29.890625 C 17.015625 29.964844 17.214844 29.8125 18.433594 28.613281 C 20.859375 26.234375 22.453125 24.03125 23.949219 21 C 24.953125 18.933594 25.695312 16.84375 26.183594 14.664062 C 26.523438 13.125 26.824219 10.871094 26.722656 10.621094 C 26.6875 10.519531 26.324219 10.421875 25.859375 10.371094 C 25.429688 10.320312 24.828125 10.257812 24.550781 10.21875 C 24.261719 10.183594 24 10.195312 23.960938 10.257812 Z M 23.960938 10.257812 " fill-opacity="1" fill-rule="nonzero"/><path fill="rgb(93.328857%, 61.178589%, 4.708862%)" d="M 85.375 12.660156 C 81.945312 19.796875 81.332031 27.660156 83.617188 35.183594 C 84.019531 36.523438 85.300781 39.640625 85.527344 39.867188 C 85.589844 39.929688 85.515625 39.316406 85.351562 38.503906 C 84.722656 35.324219 84.609375 33.90625 84.609375 29.449219 C 84.609375 26.09375 84.660156 24.917969 84.835938 23.566406 C 85.324219 19.972656 86.078125 16.84375 87.246094 13.613281 C 87.574219 12.710938 87.863281 11.898438 87.902344 11.785156 C 87.9375 11.648438 87.75 11.496094 87.210938 11.257812 C 86.796875 11.070312 86.40625 10.921875 86.34375 10.921875 C 86.265625 10.921875 85.839844 11.710938 85.375 12.660156 Z M 85.375 12.660156 " fill-opacity="1" fill-rule="nonzero"/><path fill="rgb(93.328857%, 61.178589%, 4.708862%)" d="M 29.148438 11.085938 C 29.148438 11.535156 28.710938 14.613281 28.507812 15.515625 C 28.082031 17.480469 27.078125 20.347656 26.148438 22.25 C 24.765625 25.070312 23.09375 27.433594 20.945312 29.652344 L 19.839844 30.804688 L 20.882812 31.066406 C 21.460938 31.214844 22.089844 31.390625 22.277344 31.453125 C 22.617188 31.566406 22.703125 31.503906 23.921875 30.289062 C 25.40625 28.8125 26.285156 27.746094 27.453125 25.957031 C 29.5625 22.753906 31.058594 18.769531 31.597656 14.902344 C 31.824219 13.261719 31.863281 12.199219 31.710938 12.046875 C 31.609375 11.949219 29.148438 11.007812 29.148438 11.085938 Z M 29.148438 11.085938 " fill-opacity="1" fill-rule="nonzero"/><path fill="rgb(93.328857%, 61.178589%, 4.708862%)" d="M 89.535156 14.515625 C 88.089844 18.484375 87.273438 22.378906 86.921875 27.070312 C 86.570312 31.867188 87.421875 38.328125 89.082031 43.199219 C 89.28125 43.785156 89.445312 44.398438 89.445312 44.5625 C 89.445312 44.835938 90.300781 46.164062 90.414062 46.066406 C 90.4375 46.027344 90.386719 45.25 90.3125 44.335938 C 90.109375 42.171875 90.109375 35.648438 90.3125 33.394531 C 90.816406 27.648438 91.882812 22.402344 93.578125 17.417969 L 94.066406 15.953125 L 93.414062 15.339844 C 92.347656 14.3125 90.511719 12.925781 90.222656 12.925781 C 90.160156 12.925781 89.847656 13.636719 89.535156 14.515625 Z M 89.535156 14.515625 " fill-opacity="1" fill-rule="nonzero"/><path fill="rgb(93.328857%, 61.178589%, 4.708862%)" d="M 34.046875 14.714844 C 33.546875 19.320312 31.988281 23.714844 29.476562 27.511719 C 28.535156 28.9375 27.050781 30.765625 26.148438 31.640625 C 25.542969 32.21875 25.519531 32.332031 25.972656 32.332031 C 26.625 32.332031 29.199219 30.164062 30.644531 28.386719 C 33.683594 24.679688 35.40625 20.324219 35.644531 15.792969 L 35.71875 14.351562 L 35.101562 13.902344 C 34.765625 13.664062 34.425781 13.425781 34.347656 13.386719 C 34.25 13.324219 34.160156 13.738281 34.046875 14.714844 Z M 34.046875 14.714844 " fill-opacity="1" fill-rule="nonzero"/><path fill="rgb(93.328857%, 61.178589%, 4.708862%)" d="M 75.023438 15.054688 C 72.449219 16.40625 70.175781 17.917969 67.988281 19.746094 C 66.242188 21.210938 66.292969 21.125 66.960938 21.699219 C 67.273438 21.964844 67.574219 22.1875 67.625 22.1875 C 67.6875 22.1875 68.417969 21.664062 69.257812 21.011719 C 70.890625 19.761719 73.617188 17.917969 75.0625 17.082031 L 75.941406 16.582031 L 76.230469 15.492188 C 76.394531 14.890625 76.496094 14.375 76.480469 14.351562 C 76.457031 14.339844 75.804688 14.652344 75.023438 15.054688 Z M 75.023438 15.054688 " fill-opacity="1" fill-rule="nonzero"/><path fill="rgb(93.328857%, 61.178589%, 4.708862%)" d="M 39.953125 18.132812 C 42.226562 20.523438 43.871094 22.527344 45.644531 25.03125 L 46.710938 26.558594 L 46.847656 25.59375 C 46.925781 25.070312 47.0625 24.316406 47.164062 23.917969 L 47.324219 23.214844 L 46.8125 22.976562 C 45.542969 22.414062 42.765625 20.375 39.890625 17.882812 L 38.882812 17.007812 Z M 39.953125 18.132812 " fill-opacity="1" fill-rule="nonzero"/><path fill="rgb(93.328857%, 61.178589%, 4.708862%)" d="M 95.375 19.835938 C 94.859375 21.5 94.46875 22.851562 94.46875 22.976562 C 94.46875 23.039062 97.574219 21.675781 97.886719 21.476562 C 98.050781 21.386719 96.179688 18.195312 95.964844 18.183594 C 95.925781 18.183594 95.664062 18.933594 95.375 19.835938 Z M 95.375 19.835938 " fill-opacity="1" fill-rule="nonzero"/><path fill="rgb(93.328857%, 61.178589%, 4.708862%)" d="M 58.730469 19.746094 C 58.367188 20.085938 58.167969 20.347656 58.230469 20.410156 C 58.304688 20.472656 59.347656 21.25 60.554688 22.152344 C 72.121094 30.777344 82.109375 42.359375 88.816406 54.964844 C 89.332031 55.941406 89.796875 56.742188 89.835938 56.742188 C 89.871094 56.742188 90.4375 55.957031 91.078125 54.992188 L 92.246094 53.226562 L 90.625 50.820312 C 82.726562 39.105469 72.761719 28.800781 61.257812 20.449219 C 60.289062 19.761719 59.472656 19.183594 59.433594 19.183594 C 59.398438 19.195312 59.082031 19.449219 58.730469 19.746094 Z M 58.730469 19.746094 " fill-opacity="1" fill-rule="nonzero"/><path fill="rgb(93.328857%, 61.178589%, 4.708862%)" d="M 37.464844 20.023438 C 37.351562 20.585938 37.351562 20.785156 37.476562 20.949219 C 37.554688 21.0625 38.167969 21.863281 38.820312 22.726562 C 39.476562 23.589844 40.492188 25.042969 41.082031 25.96875 C 42.277344 27.835938 44.425781 32.015625 45.152344 33.859375 C 45.417969 34.519531 45.707031 35.097656 45.820312 35.132812 C 45.917969 35.171875 46.371094 35.210938 46.824219 35.210938 L 47.652344 35.210938 L 47.578125 34.859375 C 46.886719 31.691406 46.9375 31.828125 45.980469 30.203125 C 43.769531 26.433594 40.582031 22.175781 38.230469 19.898438 L 37.617188 19.308594 Z M 37.464844 20.023438 " fill-opacity="1" fill-rule="nonzero"/><path fill="rgb(93.328857%, 61.178589%, 4.708862%)" d="M 73.617188 20.988281 C 72.074219 22.027344 70.828125 22.929688 69.960938 23.628906 L 69.636719 23.890625 L 70.488281 24.605469 C 70.96875 24.992188 71.394531 25.320312 71.445312 25.320312 C 71.496094 25.320312 72.335938 24.769531 73.304688 24.09375 L 75.0625 22.878906 L 75.199219 21.375 C 75.261719 20.550781 75.324219 19.859375 75.324219 19.859375 C 75.3125 19.847656 74.546875 20.347656 73.617188 20.988281 Z M 73.617188 20.988281 " fill-opacity="1" fill-rule="nonzero"/><path fill="rgb(93.328857%, 61.178589%, 4.708862%)" d="M 7.515625 21.023438 C 7.078125 21.988281 6.074219 24.792969 5.871094 25.695312 C 5.796875 25.996094 5.859375 26.03125 7.328125 26.609375 C 8.171875 26.933594 8.898438 27.195312 8.9375 27.195312 C 8.988281 27.195312 8.925781 26.871094 8.800781 26.472656 C 8.410156 25.242188 8.15625 23.378906 8.132812 21.625 C 8.121094 20.699219 8.09375 19.9375 8.070312 19.9375 C 8.046875 19.9375 7.792969 20.425781 7.515625 21.023438 Z M 7.515625 21.023438 " fill-opacity="1" fill-rule="nonzero"/><path fill="rgb(93.328857%, 61.178589%, 4.708862%)" d="M 55.617188 22.277344 C 55.367188 22.453125 55.152344 22.640625 55.152344 22.691406 C 55.152344 22.816406 55.878906 23.316406 56.082031 23.316406 C 56.308594 23.316406 57.035156 23.917969 57.035156 24.105469 C 57.035156 24.191406 57.828125 24.917969 58.78125 25.71875 C 69.195312 34.472656 79.070312 45.601562 86.683594 57.207031 C 87.421875 58.335938 88.0625 59.210938 88.101562 59.160156 C 88.152344 59.121094 87.710938 58.160156 87.121094 57.03125 C 80.164062 43.734375 69.863281 31.84375 57.726562 23.101562 C 56.972656 22.566406 56.28125 22.078125 56.207031 22.027344 C 56.132812 21.988281 55.867188 22.101562 55.617188 22.277344 Z M 55.617188 22.277344 " fill-opacity="1" fill-rule="nonzero"/><path fill="rgb(93.328857%, 61.178589%, 4.708862%)" d="M 36.132812 24.203125 L 35.90625 24.882812 L 36.660156 26.070312 C 38.054688 28.300781 39.585938 31.640625 40.152344 33.707031 C 40.265625 34.15625 40.40625 34.570312 40.453125 34.621094 C 40.53125 34.710938 42.839844 34.996094 42.917969 34.921875 C 42.980469 34.871094 42.125 32.980469 41.234375 31.214844 C 39.988281 28.773438 37.878906 25.394531 36.597656 23.828125 L 36.359375 23.542969 Z M 36.132812 24.203125 " fill-opacity="1" fill-rule="nonzero"/><path fill="rgb(93.328857%, 61.178589%, 4.708862%)" d="M 96.792969 24.71875 C 95.625 25.257812 94.457031 25.757812 94.207031 25.832031 C 93.78125 25.96875 93.753906 26.007812 93.601562 26.769531 C 93.527344 27.210938 93.425781 27.734375 93.378906 27.949219 L 93.300781 28.324219 L 94.984375 27.746094 C 95.914062 27.421875 97.308594 26.882812 98.089844 26.535156 L 99.519531 25.90625 L 99.433594 25.480469 C 99.394531 25.242188 99.257812 24.753906 99.144531 24.394531 L 98.929688 23.742188 Z M 96.792969 24.71875 " fill-opacity="1" fill-rule="nonzero"/><path fill="rgb(93.328857%, 61.178589%, 4.708862%)" d="M 49.5 24.429688 C 48.179688 29.351562 49.5 35.398438 53.34375 42.046875 C 54.449219 43.972656 57.753906 48.957031 58.292969 49.519531 C 58.34375 49.582031 58.570312 49.394531 58.78125 49.121094 L 59.195312 48.605469 L 58.191406 47.503906 C 54.625 43.574219 52.324219 39.96875 51.144531 36.398438 C 50.402344 34.183594 50.203125 32.894531 50.203125 30.390625 C 50.191406 28.046875 50.351562 26.972656 51.007812 25.15625 C 51.207031 24.59375 51.359375 24.128906 51.34375 24.117188 C 51.332031 24.105469 50.945312 24.066406 50.480469 24.03125 L 49.625 23.96875 Z M 49.5 24.429688 " fill-opacity="1" fill-rule="nonzero"/><path fill="rgb(93.328857%, 61.178589%, 4.708862%)" d="M 53.40625 25.746094 C 52.023438 29.0625 52.125 32.34375 53.71875 36.273438 C 54.902344 39.152344 57.414062 42.960938 60.011719 45.851562 L 60.640625 46.527344 L 60.96875 46.039062 L 61.292969 45.5625 L 60.453125 44.675781 C 56.296875 40.304688 54.019531 34.03125 54.308594 27.761719 C 54.359375 26.859375 54.421875 25.945312 54.472656 25.746094 C 54.535156 25.40625 54.5 25.320312 54.171875 25.082031 L 53.796875 24.820312 Z M 53.40625 25.746094 " fill-opacity="1" fill-rule="nonzero"/><path fill="rgb(93.328857%, 61.178589%, 4.708862%)" d="M 74.21875 26.507812 C 73.742188 26.820312 73.367188 27.097656 73.367188 27.121094 C 73.367188 27.148438 73.820312 27.585938 74.382812 28.085938 L 75.402344 29 L 75.300781 28.0625 C 75.25 27.546875 75.175781 26.871094 75.136719 26.535156 L 75.0625 25.945312 Z M 74.21875 26.507812 " fill-opacity="1" fill-rule="nonzero"/><path fill="rgb(93.328857%, 61.178589%, 4.708862%)" d="M 56.695312 29.351562 C 56.785156 31.765625 57.035156 33.207031 57.738281 35.335938 C 58.582031 37.875 60.203125 40.730469 61.773438 42.457031 L 62.5 43.261719 L 62.890625 42.394531 L 63.292969 41.53125 L 62.199219 40.40625 C 60.453125 38.601562 59.398438 36.8125 58.730469 34.519531 C 58.265625 32.90625 58.140625 31.953125 58.179688 30.101562 L 58.21875 28.4375 L 57.488281 27.8125 C 57.085938 27.472656 56.734375 27.195312 56.695312 27.195312 C 56.660156 27.195312 56.660156 28.171875 56.695312 29.351562 Z M 56.695312 29.351562 " fill-opacity="1" fill-rule="nonzero"/><path fill="rgb(93.328857%, 61.178589%, 4.708862%)" d="M 34.160156 27.875 L 33.835938 28.398438 L 34.136719 28.835938 C 34.964844 30.050781 36.308594 33.183594 36.308594 33.933594 C 36.308594 34.183594 36.722656 34.332031 37.453125 34.332031 L 37.816406 34.332031 L 37.375 33.105469 C 36.9375 31.878906 35.101562 28.109375 34.703125 27.609375 L 34.488281 27.335938 Z M 34.160156 27.875 " fill-opacity="1" fill-rule="nonzero"/><path fill="rgb(93.328857%, 61.178589%, 4.708862%)" d="M 5.355469 28.535156 C 5.320312 28.585938 5.28125 28.875 5.28125 29.1875 L 5.28125 29.765625 L 6.765625 30.601562 C 14.5 34.972656 22.089844 37.375 31.597656 38.488281 C 33.785156 38.742188 41.308594 38.703125 43.59375 38.425781 C 45.554688 38.191406 48.394531 37.726562 48.480469 37.640625 C 48.507812 37.613281 48.21875 37.589844 47.828125 37.589844 C 46.570312 37.589844 41.597656 37.199219 38.882812 36.898438 C 35.742188 36.550781 32.816406 36.097656 29.652344 35.496094 C 28.371094 35.261719 27.011719 35.007812 26.636719 34.960938 C 25.605469 34.796875 18.960938 33.070312 16.523438 32.332031 C 15.355469 31.96875 14.125 31.628906 13.796875 31.578125 C 13.484375 31.542969 13.132812 31.429688 13.03125 31.355469 C 12.933594 31.265625 11.839844 30.839844 10.609375 30.402344 C 8.398438 29.613281 7.367188 29.238281 6.085938 28.722656 C 5.722656 28.574219 5.394531 28.5 5.355469 28.535156 Z M 5.355469 28.535156 " fill-opacity="1" fill-rule="nonzero"/><g clip-path="url(#id2)"><path fill="rgb(93.328857%, 61.178589%, 4.708862%)" d="M 98.554688 29.023438 C 97.308594 29.5625 93.617188 30.828125 93.265625 30.828125 C 93 30.828125 92.863281 31.292969 92.761719 32.492188 L 92.675781 33.558594 L 93.539062 33.382812 C 95.6875 32.945312 97.738281 32.269531 99.40625 31.441406 L 100.125 31.078125 L 100.125 30.339844 C 100.125 29.464844 99.996094 28.449219 99.882812 28.460938 C 99.847656 28.472656 99.242188 28.722656 98.554688 29.023438 Z M 98.554688 29.023438 " fill-opacity="1" fill-rule="nonzero"/></g><path fill="rgb(93.328857%, 61.178589%, 4.708862%)" d="M 30.894531 31.765625 L 29.550781 33.070312 L 30.203125 33.195312 C 30.820312 33.320312 33.683594 33.832031 33.746094 33.832031 C 33.898438 33.832031 32.742188 31.230469 32.328125 30.613281 C 32.25 30.515625 31.785156 30.902344 30.894531 31.765625 Z M 30.894531 31.765625 " fill-opacity="1" fill-rule="nonzero"/><path fill="rgb(93.328857%, 61.178589%, 4.708862%)" d="M 60.578125 31.429688 C 60.792969 33.417969 61.457031 35.273438 62.5625 36.914062 C 63.390625 38.140625 64.03125 38.929688 64.132812 38.828125 C 64.257812 38.703125 64.699219 35.796875 64.699219 35.085938 L 64.699219 34.359375 L 62.902344 32.695312 C 61.921875 31.765625 60.96875 30.890625 60.792969 30.742188 L 60.476562 30.453125 Z M 60.578125 31.429688 " fill-opacity="1" fill-rule="nonzero"/><path fill="rgb(93.328857%, 61.178589%, 4.708862%)" d="M 5.15625 33.320312 C 5.15625 34.835938 5.03125 34.710938 7.53125 35.699219 C 15.894531 39.003906 24.289062 40.980469 33.421875 41.78125 C 36.625 42.070312 41.925781 42.160156 45.039062 41.984375 C 47.640625 41.832031 50.140625 41.621094 50.226562 41.53125 C 50.277344 41.480469 49.511719 39.96875 49.4375 39.96875 C 49.398438 39.96875 48.53125 40.105469 47.5 40.28125 C 44.097656 40.832031 41.585938 41.019531 37.441406 41.019531 C 33.546875 41.019531 31.710938 40.90625 28.394531 40.457031 C 23.308594 39.753906 17.90625 38.328125 13.21875 36.449219 C 11.449219 35.734375 7.605469 33.90625 6.1875 33.105469 C 5.671875 32.820312 5.230469 32.582031 5.207031 32.582031 C 5.179688 32.582031 5.15625 32.90625 5.15625 33.320312 Z M 5.15625 33.320312 " fill-opacity="1" fill-rule="nonzero"/><path fill="rgb(93.328857%, 61.178589%, 4.708862%)" d="M 98.539062 34.472656 C 97.09375 35.023438 95.347656 35.484375 93.78125 35.761719 C 93.1875 35.859375 92.648438 35.984375 92.585938 36.023438 C 92.410156 36.125 92.421875 38.589844 92.585938 38.589844 C 93.101562 38.589844 95.363281 38.277344 96.34375 38.089844 C 98.3125 37.675781 99.242188 37.363281 99.355469 37.050781 C 99.519531 36.636719 99.898438 34.382812 99.847656 34.183594 C 99.820312 34.03125 99.558594 34.09375 98.539062 34.472656 Z M 98.539062 34.472656 " fill-opacity="1" fill-rule="nonzero"/><path fill="rgb(93.328857%, 61.178589%, 4.708862%)" d="M 66.847656 37.675781 C 66.292969 41.144531 64.773438 44.851562 62.5 48.230469 C 59.699219 52.414062 56.898438 55.355469 49.8125 61.640625 C 45.769531 65.207031 43.871094 66.996094 42.328125 68.675781 C 41.609375 69.453125 41.371094 69.765625 41.785156 69.375 C 43.054688 68.164062 44.851562 66.859375 48.847656 64.21875 C 54.007812 60.8125 56.167969 59.074219 58.632812 56.332031 C 63.089844 51.371094 66.28125 45.386719 67.800781 39.105469 L 68.117188 37.800781 L 67.550781 37.25 L 66.996094 36.6875 Z M 66.847656 37.675781 " fill-opacity="1" fill-rule="nonzero"/><path fill="rgb(93.328857%, 61.178589%, 4.708862%)" d="M 5.695312 37.863281 C 5.734375 38.027344 5.882812 38.765625 6.035156 39.503906 C 6.234375 40.46875 6.386719 40.882812 6.550781 40.96875 C 6.914062 41.167969 11.425781 42.433594 14.578125 43.222656 C 23.007812 45.324219 31.371094 46.601562 40.832031 47.230469 C 43.457031 47.402344 51.597656 47.542969 52.777344 47.429688 L 53.730469 47.339844 L 52.664062 45.625 C 52.074219 44.6875 51.585938 43.898438 51.558594 43.875 C 51.546875 43.847656 50.464844 43.9375 49.160156 44.0625 C 46.195312 44.347656 35.957031 44.386719 33.105469 44.125 C 23.597656 43.246094 14.652344 41.167969 6.800781 38.015625 C 6.210938 37.777344 5.707031 37.589844 5.683594 37.589844 C 5.660156 37.589844 5.660156 37.714844 5.695312 37.863281 Z M 5.695312 37.863281 " fill-opacity="1" fill-rule="nonzero"/><path fill="rgb(93.328857%, 61.178589%, 4.708862%)" d="M 70.023438 40.304688 C 68.945312 44.851562 66.484375 50.257812 63.78125 54.015625 C 62.25 56.15625 61.34375 57.207031 59.359375 59.199219 C 56.808594 61.765625 55.578125 62.730469 51.007812 65.734375 C 48.972656 67.074219 46.660156 68.652344 45.867188 69.238281 C 40.96875 72.894531 38.195312 77.300781 38.195312 81.421875 L 38.195312 82.636719 L 38.722656 83.085938 C 39.011719 83.335938 39.285156 83.535156 39.324219 83.535156 C 39.375 83.535156 39.476562 83.171875 39.550781 82.734375 C 40.078125 79.929688 41.898438 76.449219 44.261719 73.757812 C 46.195312 71.554688 48.292969 69.777344 52.890625 66.472656 C 58.921875 62.140625 61.734375 59.585938 64.359375 56.105469 C 67.25 52.285156 69.621094 47.140625 70.664062 42.433594 L 70.992188 40.96875 L 70.589844 40.46875 C 70.363281 40.191406 70.164062 39.96875 70.152344 39.96875 C 70.125 39.96875 70.0625 40.117188 70.023438 40.304688 Z M 70.023438 40.304688 " fill-opacity="1" fill-rule="nonzero"/><path fill="rgb(93.328857%, 61.178589%, 4.708862%)" d="M 97.484375 40.292969 C 96.441406 40.542969 94.195312 40.84375 93.277344 40.84375 L 92.460938 40.84375 L 92.460938 41.457031 C 92.460938 41.796875 92.5 42.246094 92.535156 42.472656 C 92.625 42.859375 92.636719 42.871094 93.164062 42.785156 C 93.878906 42.683594 96.054688 42.160156 97.144531 41.820312 C 98.050781 41.542969 98.1875 41.40625 98.425781 40.429688 C 98.527344 40.042969 98.503906 40.042969 97.484375 40.292969 Z M 97.484375 40.292969 " fill-opacity="1" fill-rule="nonzero"/><path fill="rgb(93.328857%, 61.178589%, 4.708862%)" d="M 72.800781 44.125 C 72.1875 46.664062 70.855469 50.097656 69.511719 52.613281 C 68.59375 54.351562 66.746094 57.105469 65.378906 58.808594 C 63.894531 60.636719 61.230469 63.28125 59.296875 64.820312 C 58.429688 65.507812 56.359375 67.046875 54.699219 68.238281 C 50.769531 71.042969 49.246094 72.257812 47.539062 73.957031 C 44.171875 77.300781 42.175781 80.933594 41.648438 84.675781 L 41.558594 85.25 L 42.855469 86.277344 C 43.570312 86.828125 44.199219 87.292969 44.25 87.292969 C 44.3125 87.292969 44.347656 87.140625 44.347656 86.941406 C 44.347656 86.417969 44.914062 84.226562 45.355469 83.035156 C 46.320312 80.417969 47.703125 78.328125 50 76.011719 C 51.796875 74.210938 52.851562 73.34375 56.722656 70.578125 C 59.761719 68.414062 61.722656 66.808594 63.253906 65.269531 C 64.460938 64.042969 64.671875 64.003906 65.589844 64.78125 C 66.519531 65.582031 66.484375 65.707031 64.785156 67.347656 L 63.367188 68.738281 L 64.058594 69.0625 C 64.761719 69.402344 65.953125 69.765625 66.355469 69.765625 C 66.558594 69.765625 66.582031 69.578125 66.609375 68.035156 L 66.644531 66.320312 L 66.960938 66.285156 C 67.1875 66.257812 67.5 66.445312 68.128906 66.960938 L 68.96875 67.675781 L 68.96875 69.375 C 68.96875 72.269531 68.59375 75.4375 67.890625 78.277344 C 67.726562 78.992188 67.601562 79.59375 67.636719 79.617188 C 67.664062 79.644531 68.164062 79.265625 68.742188 78.792969 L 69.8125 77.914062 L 69.949219 76.8125 C 70.214844 74.734375 70.25 74.257812 70.339844 71.917969 L 70.414062 69.578125 L 70.753906 69.539062 C 71.015625 69.5 71.304688 69.652344 71.933594 70.164062 L 72.75 70.828125 L 72.675781 72.707031 C 72.636719 73.734375 72.5625 74.835938 72.523438 75.148438 L 72.449219 75.710938 L 73.769531 74.484375 C 74.722656 73.621094 75.1875 73.269531 75.414062 73.269531 C 75.714844 73.269531 77.222656 74.359375 78.894531 75.773438 C 81.117188 77.664062 84.910156 80.71875 85.25 80.871094 C 85.601562 81.046875 85.675781 81.03125 86.027344 80.855469 C 86.605469 80.558594 86.859375 80.117188 86.769531 79.582031 C 86.667969 78.992188 86.667969 78.992188 84.519531 77.203125 C 83.515625 76.351562 82.664062 75.613281 82.636719 75.5625 C 82.625 75.5 81.667969 74.699219 80.527344 73.785156 C 77.3125 71.179688 77.3125 71.179688 78.015625 70.515625 C 78.289062 70.253906 78.378906 70.078125 78.339844 69.863281 C 78.304688 69.703125 78.242188 69.027344 78.203125 68.335938 C 77.925781 64.042969 76.429688 57.894531 74.648438 53.714844 L 74.285156 52.863281 L 73.820312 54.027344 L 73.367188 55.191406 L 73.917969 56.519531 C 74.75 58.484375 75.679688 61.300781 76.242188 63.503906 C 76.769531 65.59375 77.359375 68.777344 77.410156 69.890625 C 77.449219 70.554688 77.4375 70.578125 77.109375 70.617188 C 76.832031 70.652344 76.570312 70.492188 75.855469 69.878906 L 74.9375 69.089844 L 74.710938 67.773438 C 74.269531 65.132812 73.015625 60.664062 72.136719 58.632812 L 71.910156 58.082031 L 71.507812 58.796875 L 71.09375 59.511719 L 71.46875 60.976562 C 71.910156 62.730469 72.425781 65.910156 72.324219 66.183594 C 72.171875 66.570312 71.671875 66.382812 70.714844 65.570312 C 69.824219 64.820312 69.75 64.71875 69.671875 64.167969 C 69.621094 63.832031 69.523438 63.265625 69.433594 62.890625 L 69.285156 62.214844 L 68.933594 62.730469 C 68.695312 63.105469 68.503906 63.253906 68.292969 63.253906 C 67.863281 63.253906 66.582031 62.152344 66.582031 61.789062 C 66.582031 61.625 66.882812 61.089844 67.261719 60.585938 C 68.980469 58.296875 71.082031 54.339844 72.148438 51.359375 C 72.714844 49.796875 73.453125 46.992188 73.78125 45.226562 L 73.957031 44.273438 L 73.492188 43.75 L 73.015625 43.222656 Z M 72.800781 44.125 " fill-opacity="1" fill-rule="nonzero"/><path fill="rgb(93.328857%, 61.178589%, 4.708862%)" d="M 7.304688 43.898438 C 7.304688 43.972656 7.515625 44.539062 7.769531 45.164062 L 8.234375 46.277344 L 8.988281 46.503906 C 11.109375 47.140625 13.699219 47.878906 14.136719 47.980469 C 14.414062 48.042969 15.292969 48.253906 16.085938 48.46875 C 19.5625 49.371094 24.976562 50.382812 29.085938 50.910156 C 37.652344 52 45.390625 52.148438 54.148438 51.410156 C 55.351562 51.308594 56.359375 51.199219 56.382812 51.171875 C 56.40625 51.160156 56.183594 50.808594 55.878906 50.394531 L 55.339844 49.671875 L 49.9375 49.707031 C 44.5625 49.746094 41.046875 49.632812 36.75 49.28125 C 27.628906 48.542969 18.007812 46.789062 9.023438 44.25 C 7.996094 43.960938 7.292969 43.8125 7.304688 43.898438 Z M 7.304688 43.898438 " fill-opacity="1" fill-rule="nonzero"/><path fill="rgb(93.328857%, 61.178589%, 4.708862%)" d="M 95.914062 44.675781 C 95.574219 44.761719 94.734375 44.9375 94.066406 45.0625 L 92.835938 45.289062 L 92.835938 45.851562 C 92.835938 46.164062 92.886719 46.503906 92.949219 46.589844 C 93.089844 46.816406 94.433594 46.929688 95.285156 46.804688 C 95.839844 46.714844 95.863281 46.691406 96.277344 45.875 C 97.03125 44.363281 97.03125 44.363281 95.914062 44.675781 Z M 95.914062 44.675781 " fill-opacity="1" fill-rule="nonzero"/><path fill="rgb(93.328857%, 61.178589%, 4.708862%)" d="M 75.765625 47.628906 C 75.691406 48.066406 75.589844 48.582031 75.539062 48.78125 L 75.464844 49.132812 L 76.480469 49.09375 C 77.035156 49.070312 77.535156 49.007812 77.574219 48.957031 C 77.664062 48.867188 76.144531 46.851562 75.992188 46.851562 C 75.953125 46.851562 75.855469 47.203125 75.765625 47.628906 Z M 75.765625 47.628906 " fill-opacity="1" fill-rule="nonzero"/><path fill="rgb(93.328857%, 61.178589%, 4.708862%)" d="M 93.402344 49.894531 C 93.453125 50.320312 93.527344 50.722656 93.589844 50.773438 C 93.640625 50.835938 93.878906 50.523438 94.132812 50.082031 C 94.371094 49.644531 94.570312 49.292969 94.558594 49.28125 C 94.546875 49.269531 94.257812 49.230469 93.929688 49.183594 L 93.316406 49.105469 Z M 93.402344 49.894531 " fill-opacity="1" fill-rule="nonzero"/><path fill="rgb(93.328857%, 61.178589%, 4.708862%)" d="M 9.550781 49.320312 C 9.550781 49.519531 11.902344 53.890625 12.933594 55.617188 C 15.984375 60.664062 19.4375 65.132812 24.488281 70.503906 C 24.976562 71.042969 25.066406 71.167969 22.605469 67.5 C 19.375 62.691406 17.605469 59.597656 14.941406 54.140625 C 13.972656 52.160156 13.132812 50.460938 13.082031 50.371094 C 13.03125 50.269531 12.253906 49.972656 11.363281 49.707031 C 9.617188 49.207031 9.550781 49.195312 9.550781 49.320312 Z M 9.550781 49.320312 " fill-opacity="1" fill-rule="nonzero"/><path fill="rgb(93.328857%, 61.178589%, 4.708862%)" d="M 16.953125 52.761719 C 18.257812 55.492188 19.953125 58.621094 21.839844 61.738281 C 22.855469 63.441406 26.019531 68.289062 26.070312 68.238281 C 26.097656 68.210938 26.359375 67.785156 26.675781 67.273438 L 27.238281 66.347656 L 26.636719 65.507812 C 24.449219 62.453125 22.164062 57.707031 21.070312 53.925781 C 20.832031 53.101562 20.621094 52.3125 20.59375 52.1875 C 20.558594 51.988281 20.203125 51.875 18.410156 51.472656 C 17.242188 51.210938 16.234375 50.996094 16.183594 50.984375 C 16.136719 50.984375 16.488281 51.785156 16.953125 52.761719 Z M 16.953125 52.761719 " fill-opacity="1" fill-rule="nonzero"/><path fill="rgb(93.328857%, 61.178589%, 4.708862%)" d="M 77.675781 51.347656 C 77.046875 51.398438 76.496094 51.449219 76.46875 51.484375 C 76.429688 51.523438 76.621094 52.085938 76.882812 52.738281 L 77.375 53.925781 L 78.792969 53.878906 C 79.570312 53.851562 80.453125 53.800781 80.738281 53.75 L 81.269531 53.675781 L 80.375 52.449219 C 79.621094 51.421875 79.421875 51.234375 79.15625 51.261719 C 78.980469 51.273438 78.316406 51.308594 77.675781 51.347656 Z M 77.675781 51.347656 " fill-opacity="1" fill-rule="nonzero"/><path fill="rgb(93.328857%, 61.178589%, 4.708862%)" d="M 23.246094 52.601562 C 23.246094 52.851562 23.910156 54.839844 24.464844 56.242188 C 25.21875 58.171875 26.824219 61.289062 27.917969 62.953125 L 28.796875 64.320312 L 29.398438 63.667969 L 30.003906 63.015625 L 28.835938 60.539062 C 28.195312 59.171875 27.238281 56.957031 26.710938 55.617188 C 26.183594 54.277344 25.707031 53.089844 25.644531 52.988281 C 25.492188 52.726562 23.246094 52.363281 23.246094 52.601562 Z M 23.246094 52.601562 " fill-opacity="1" fill-rule="nonzero"/><path fill="rgb(93.328857%, 61.178589%, 4.708862%)" d="M 28.695312 54.039062 C 29.238281 55.453125 30.214844 57.734375 31.082031 59.546875 C 32 61.476562 32.316406 61.6875 31.914062 60.125 C 31.585938 58.886719 31.082031 56.304688 30.90625 55.054688 C 30.679688 53.324219 30.84375 53.488281 29.109375 53.289062 L 28.382812 53.214844 Z M 28.695312 54.039062 " fill-opacity="1" fill-rule="nonzero"/><path fill="rgb(93.328857%, 61.178589%, 4.708862%)" d="M 33.167969 53.964844 C 33.167969 54.101562 33.28125 54.867188 33.421875 55.65625 C 34.160156 60.023438 35.453125 64.082031 37.351562 68.050781 L 38.117188 69.652344 L 38.40625 69.300781 C 39.085938 68.5 39.074219 68.574219 38.933594 66.699219 C 38.683594 62.980469 38.179688 59.335938 37.425781 55.855469 L 37.039062 54.027344 L 35.695312 53.941406 C 34.964844 53.890625 34.097656 53.828125 33.773438 53.777344 C 33.230469 53.714844 33.167969 53.726562 33.167969 53.964844 Z M 33.167969 53.964844 " fill-opacity="1" fill-rule="nonzero"/><path fill="rgb(93.328857%, 61.178589%, 4.708862%)" d="M 53.179688 53.828125 C 52.136719 53.878906 52.136719 53.878906 52.488281 54.964844 L 52.703125 55.628906 L 53.707031 54.691406 C 54.5625 53.902344 54.660156 53.75 54.398438 53.765625 C 54.222656 53.777344 53.667969 53.8125 53.179688 53.828125 Z M 53.179688 53.828125 " fill-opacity="1" fill-rule="nonzero"/><path fill="rgb(93.328857%, 61.178589%, 4.708862%)" d="M 39.613281 54.390625 C 40.117188 56.382812 40.980469 62.339844 41.15625 64.855469 L 41.246094 66.132812 L 42.453125 64.980469 C 43.117188 64.34375 43.695312 63.769531 43.734375 63.691406 C 43.847656 63.515625 42.992188 59.609375 42.199219 56.65625 C 41.472656 53.953125 41.597656 54.113281 40.179688 54.113281 C 39.585938 54.113281 39.550781 54.128906 39.613281 54.390625 Z M 39.613281 54.390625 " fill-opacity="1" fill-rule="nonzero"/><path fill="rgb(93.328857%, 61.178589%, 4.708862%)" d="M 48.242188 54.175781 C 48.242188 54.214844 48.417969 54.589844 48.621094 55.003906 C 48.832031 55.417969 49.199219 56.320312 49.421875 57.007812 L 49.851562 58.257812 L 50.265625 57.894531 L 50.679688 57.519531 L 50.265625 56.042969 C 50.039062 55.214844 49.824219 54.453125 49.800781 54.328125 C 49.75 54.152344 49.585938 54.113281 48.984375 54.113281 C 48.582031 54.113281 48.242188 54.140625 48.242188 54.175781 Z M 48.242188 54.175781 " fill-opacity="1" fill-rule="nonzero"/><path fill="rgb(93.328857%, 61.178589%, 4.708862%)" d="M 44.148438 54.515625 C 44.25 54.867188 45.53125 60.050781 45.753906 61.027344 L 45.917969 61.738281 L 46.835938 60.902344 L 47.765625 60.0625 L 47.550781 59.246094 C 47.226562 57.972656 46.859375 57.007812 46.320312 55.929688 C 45.515625 54.328125 45.441406 54.238281 44.699219 54.238281 C 44.109375 54.238281 44.074219 54.253906 44.148438 54.515625 Z M 44.148438 54.515625 " fill-opacity="1" fill-rule="nonzero"/><path fill="rgb(93.328857%, 61.178589%, 4.708862%)" d="M 80.210938 56.144531 C 79.183594 56.207031 78.316406 56.28125 78.289062 56.304688 C 78.175781 56.417969 78.96875 58.785156 79.132812 58.847656 C 79.445312 58.960938 81.632812 58.546875 82.839844 58.132812 C 83.453125 57.921875 83.96875 57.734375 83.992188 57.707031 C 84.019531 57.683594 83.78125 57.292969 83.464844 56.832031 C 82.964844 56.066406 82.875 55.992188 82.5 56.003906 C 82.285156 56.019531 81.253906 56.082031 80.210938 56.144531 Z M 80.210938 56.144531 " fill-opacity="1" fill-rule="nonzero"/><path fill="rgb(93.328857%, 61.178589%, 4.708862%)" d="M 85.113281 59.863281 C 84.9375 60.160156 81.882812 60.988281 80.261719 61.175781 L 79.558594 61.265625 L 79.824219 62.601562 C 79.960938 63.34375 80.085938 63.957031 80.097656 63.980469 C 80.125 64.03125 82.148438 63.253906 83.226562 62.753906 C 84.382812 62.242188 86.179688 61.238281 86.179688 61.101562 C 86.179688 60.925781 85.414062 59.75 85.300781 59.75 C 85.238281 59.75 85.160156 59.800781 85.113281 59.863281 Z M 85.113281 59.863281 " fill-opacity="1" fill-rule="nonzero"/><path fill="rgb(93.328857%, 61.178589%, 4.708862%)" d="M 32.027344 64.542969 C 31.585938 64.96875 30.957031 65.632812 30.644531 66.007812 C 29.273438 67.625 27.640625 70.390625 27.640625 71.105469 C 27.640625 71.292969 27.527344 71.554688 27.390625 71.691406 C 27.265625 71.84375 27.0625 72.167969 26.964844 72.417969 L 26.761719 72.871094 L 27.941406 73.945312 C 28.582031 74.535156 29.148438 75.023438 29.199219 75.023438 C 29.238281 75.023438 29.273438 74.910156 29.273438 74.785156 C 29.273438 74.347656 30.015625 71.667969 30.480469 70.429688 C 30.996094 69.027344 32.175781 66.609375 32.855469 65.558594 C 33.292969 64.882812 33.308594 64.808594 33.179688 64.367188 C 33.105469 64.105469 32.992188 63.855469 32.929688 63.832031 C 32.867188 63.792969 32.464844 64.105469 32.027344 64.542969 Z M 32.027344 64.542969 " fill-opacity="1" fill-rule="nonzero"/><path fill="rgb(93.328857%, 61.178589%, 4.708862%)" d="M 81.40625 66.132812 C 80.753906 66.371094 80.464844 66.546875 80.476562 66.683594 C 80.476562 66.796875 80.488281 67.136719 80.5 67.4375 L 80.527344 67.988281 L 81.382812 67.085938 C 82.359375 66.058594 82.613281 65.757812 82.460938 65.769531 C 82.398438 65.769531 81.921875 65.933594 81.40625 66.132812 Z M 81.40625 66.132812 " fill-opacity="1" fill-rule="nonzero"/><path fill="rgb(93.328857%, 61.178589%, 4.708862%)" d="M 33.882812 68.914062 C 32.816406 71.066406 32.039062 73.296875 31.597656 75.460938 L 31.296875 76.949219 L 31.574219 77.25 C 31.722656 77.414062 32.0625 77.714844 32.316406 77.925781 L 32.792969 78.304688 L 32.929688 77.941406 C 33.28125 77.015625 34.664062 74.445312 35.503906 73.183594 L 36.421875 71.78125 L 35.441406 69.765625 L 34.460938 67.761719 Z M 33.882812 68.914062 " fill-opacity="1" fill-rule="nonzero"/><path fill="rgb(93.328857%, 61.178589%, 4.708862%)" d="M 60.011719 71.253906 L 58.667969 72.207031 L 59.019531 72.492188 C 59.535156 72.933594 61.507812 73.847656 62.5625 74.148438 C 63.101562 74.296875 64.070312 74.445312 64.835938 74.484375 L 66.167969 74.558594 L 66.242188 74.132812 C 66.292969 73.894531 66.355469 73.359375 66.40625 72.933594 L 66.484375 72.167969 L 65.878906 72.082031 C 64.359375 71.867188 62.914062 71.355469 61.886719 70.667969 L 61.355469 70.304688 Z M 60.011719 71.253906 " fill-opacity="1" fill-rule="nonzero"/><path fill="rgb(93.328857%, 61.178589%, 4.708862%)" d="M 55.140625 74.761719 C 54.421875 75.3125 53.695312 75.863281 53.542969 76 L 53.242188 76.226562 L 55.0625 76.9375 C 57.777344 77.992188 62.613281 79.367188 64.433594 79.605469 L 65.011719 79.679688 L 65.289062 78.628906 C 65.453125 78.066406 65.601562 77.4375 65.652344 77.265625 L 65.714844 76.9375 L 64.546875 76.863281 C 61.921875 76.6875 59.699219 75.9375 57.5625 74.484375 C 57 74.085938 56.507812 73.769531 56.484375 73.769531 C 56.457031 73.769531 55.855469 74.222656 55.140625 74.761719 Z M 55.140625 74.761719 " fill-opacity="1" fill-rule="nonzero"/><path fill="rgb(93.328857%, 61.178589%, 4.708862%)" d="M 36.371094 76.574219 C 36.058594 77.164062 35.566406 78.164062 35.292969 78.804688 L 34.777344 79.96875 L 35.265625 80.367188 L 35.742188 80.769531 L 35.84375 80.117188 C 36.046875 78.703125 36.347656 77.425781 36.699219 76.539062 C 36.886719 76.023438 37.039062 75.574219 37.011719 75.550781 C 36.988281 75.523438 36.699219 75.988281 36.371094 76.574219 Z M 36.371094 76.574219 " fill-opacity="1" fill-rule="nonzero"/><path fill="rgb(93.328857%, 61.178589%, 4.708862%)" d="M 50.867188 78.628906 C 50.289062 79.28125 49.183594 80.882812 49.261719 80.957031 C 49.285156 80.984375 49.789062 81.257812 50.378906 81.570312 C 53.242188 83.085938 56.785156 84.101562 60.140625 84.351562 L 61.292969 84.449219 L 62.5625 83.535156 C 63.695312 82.722656 64.195312 82.257812 64.195312 82.023438 C 64.195312 81.972656 63.921875 81.910156 63.582031 81.859375 C 61.207031 81.546875 55.050781 79.667969 52.175781 78.390625 L 51.394531 78.039062 Z M 50.867188 78.628906 " fill-opacity="1" fill-rule="nonzero"/><path fill="rgb(93.328857%, 61.178589%, 4.708862%)" d="M 47.867188 83.5 C 47.664062 83.949219 47.101562 85.578125 47.148438 85.613281 C 47.164062 85.628906 49.183594 86.152344 51.632812 86.765625 L 56.09375 87.894531 L 57.125 87.242188 C 57.6875 86.890625 58.128906 86.589844 58.117188 86.566406 C 58.089844 86.554688 57.449219 86.429688 56.683594 86.289062 C 54.195312 85.839844 50.957031 84.714844 48.910156 83.585938 C 48.480469 83.347656 48.117188 83.160156 48.078125 83.160156 C 48.054688 83.160156 47.953125 83.3125 47.867188 83.5 Z M 47.867188 83.5 " fill-opacity="1" fill-rule="nonzero"/><g clip-path="url(#id3)"><path fill="rgb(93.328857%, 61.178589%, 4.708862%)" d="M 46.558594 88.320312 C 46.410156 88.894531 46.496094 89.03125 47.3125 89.621094 C 48.292969 90.324219 49.988281 91.300781 50.226562 91.300781 C 50.417969 91.300781 53.128906 89.769531 53.140625 89.660156 C 53.140625 89.609375 47.675781 88.21875 46.847656 88.070312 C 46.722656 88.042969 46.609375 88.144531 46.558594 88.320312 Z M 46.558594 88.320312 " fill-opacity="1" fill-rule="nonzero"/></g><g fill="rgb(0%, 0%, 0%)" fill-opacity="1"><g transform="translate(16.919591, 43.552389)"><g><path d="M 4.203125 -13.457031 C 3.121094 -13.457031 2.3125 -13.164062 1.78125 -12.59375 C 1.230469 -12.007812 0.972656 -11.199219 0.972656 -10.152344 C 0.972656 -9.765625 1.007812 -9.417969 1.082031 -9.085938 C 1.15625 -8.757812 1.304688 -8.425781 1.488281 -8.097656 C 1.671875 -7.765625 1.925781 -7.433594 2.238281 -7.105469 C 2.535156 -6.773438 2.917969 -6.40625 3.378906 -6.039062 C 3.726562 -5.746094 4.019531 -5.472656 4.257812 -5.214844 C 4.496094 -4.957031 4.699219 -4.738281 4.847656 -4.515625 C 4.992188 -4.296875 5.085938 -4.074219 5.160156 -3.855469 C 5.214844 -3.636719 5.25 -3.394531 5.25 -3.175781 C 5.25 -2.699219 5.140625 -2.367188 4.9375 -2.183594 C 4.738281 -1.984375 4.460938 -1.890625 4.113281 -1.890625 C 3.746094 -1.890625 3.46875 -1.984375 3.285156 -2.183594 C 3.085938 -2.367188 2.992188 -2.699219 2.992188 -3.175781 L 2.992188 -3.707031 C 2.992188 -3.820312 2.9375 -3.910156 2.863281 -3.984375 C 2.773438 -4.058594 2.679688 -4.113281 2.570312 -4.113281 L 1.320312 -4.113281 C 1.210938 -4.113281 1.101562 -4.058594 1.027344 -3.984375 C 0.953125 -3.910156 0.917969 -3.820312 0.917969 -3.707031 L 0.917969 -3.304688 C 0.917969 -2.238281 1.191406 -1.414062 1.742188 -0.84375 C 2.292969 -0.273438 3.101562 0 4.1875 0 C 5.25 0 6.058594 -0.273438 6.609375 -0.84375 C 7.160156 -1.414062 7.433594 -2.238281 7.433594 -3.304688 C 7.433594 -3.671875 7.378906 -4.039062 7.308594 -4.371094 C 7.234375 -4.699219 7.105469 -5.011719 6.921875 -5.34375 C 6.738281 -5.671875 6.480469 -6.003906 6.167969 -6.332031 C 5.855469 -6.664062 5.472656 -7.03125 5.03125 -7.417969 C 4.664062 -7.710938 4.371094 -7.96875 4.128906 -8.226562 C 3.890625 -8.480469 3.707031 -8.71875 3.5625 -8.941406 C 3.414062 -9.160156 3.304688 -9.363281 3.25 -9.582031 C 3.175781 -9.804688 3.15625 -10.023438 3.15625 -10.28125 C 3.15625 -10.738281 3.25 -11.070312 3.433594 -11.273438 C 3.617188 -11.472656 3.890625 -11.585938 4.257812 -11.585938 C 4.609375 -11.585938 4.882812 -11.472656 5.066406 -11.273438 C 5.25 -11.070312 5.34375 -10.738281 5.34375 -10.28125 L 5.34375 -10.152344 C 5.34375 -10.023438 5.378906 -9.914062 5.453125 -9.839844 C 5.527344 -9.765625 5.636719 -9.730469 5.765625 -9.730469 L 6.996094 -9.730469 C 7.105469 -9.730469 7.214844 -9.765625 7.289062 -9.839844 C 7.363281 -9.914062 7.417969 -10.023438 7.417969 -10.152344 C 7.417969 -11.199219 7.140625 -12.007812 6.609375 -12.59375 C 6.058594 -13.164062 5.269531 -13.457031 4.203125 -13.457031 Z M 4.203125 -13.457031 "/></g></g></g><g fill="rgb(0%, 0%, 0%)" fill-opacity="1"><g transform="translate(25.271683, 43.552389)"><g><path d="M 6.023438 0 C 7.710938 0 9.03125 -0.699219 9.96875 -2.128906 C 10.738281 -3.324219 11.125 -4.847656 11.125 -6.71875 C 11.125 -7.636719 11.015625 -8.480469 10.832031 -9.253906 C 10.628906 -10.023438 10.335938 -10.722656 9.96875 -11.308594 C 9.03125 -12.742188 7.710938 -13.457031 6.023438 -13.457031 C 4.3125 -13.457031 2.992188 -12.742188 2.074219 -11.308594 C 1.6875 -10.722656 1.394531 -10.023438 1.210938 -9.253906 C 1.007812 -8.480469 0.917969 -7.636719 0.917969 -6.71875 C 0.917969 -4.847656 1.304688 -3.324219 2.074219 -2.128906 C 2.992188 -0.699219 4.3125 0 6.023438 0 Z M 6.023438 -11.382812 C 6.480469 -11.382812 6.882812 -11.289062 7.214844 -11.105469 C 7.546875 -10.921875 7.820312 -10.703125 8.042969 -10.410156 C 8.261719 -10.117188 8.445312 -9.804688 8.59375 -9.453125 C 8.71875 -9.105469 8.8125 -8.757812 8.886719 -8.410156 C 8.960938 -8.058594 8.996094 -7.730469 9.015625 -7.433594 C 9.03125 -7.140625 9.050781 -6.902344 9.050781 -6.71875 C 9.050781 -6.535156 9.03125 -6.277344 9.015625 -5.984375 C 8.996094 -5.691406 8.960938 -5.359375 8.886719 -5.03125 C 8.8125 -4.679688 8.71875 -4.332031 8.59375 -3.984375 C 8.445312 -3.636719 8.261719 -3.324219 8.042969 -3.027344 C 7.820312 -2.734375 7.546875 -2.515625 7.214844 -2.332031 C 6.882812 -2.148438 6.480469 -2.074219 6.023438 -2.074219 C 5.542969 -2.074219 5.160156 -2.148438 4.828125 -2.332031 C 4.496094 -2.515625 4.203125 -2.734375 3.984375 -3.027344 C 3.761719 -3.324219 3.578125 -3.636719 3.453125 -3.984375 C 3.304688 -4.332031 3.210938 -4.679688 3.140625 -5.03125 C 3.066406 -5.359375 3.027344 -5.691406 3.011719 -5.984375 C 2.992188 -6.277344 2.992188 -6.535156 2.992188 -6.71875 C 2.992188 -6.902344 2.992188 -7.140625 3.011719 -7.433594 C 3.027344 -7.730469 3.066406 -8.058594 3.140625 -8.410156 C 3.210938 -8.757812 3.304688 -9.105469 3.453125 -9.453125 C 3.578125 -9.804688 3.761719 -10.117188 3.984375 -10.410156 C 4.203125 -10.703125 4.496094 -10.921875 4.828125 -11.105469 C 5.160156 -11.289062 5.542969 -11.382812 6.023438 -11.382812 Z M 6.023438 -11.382812 "/></g></g></g><g fill="rgb(0%, 0%, 0%)" fill-opacity="1"><g transform="translate(37.313382, 43.552389)"><g/></g></g><g fill="rgb(0%, 0%, 0%)" fill-opacity="1"><g transform="translate(42.820262, 43.552389)"><g><path d="M 12.042969 -7.011719 L 7.472656 -7.011719 C 7.324219 -7.011719 7.195312 -6.957031 7.085938 -6.847656 C 6.976562 -6.738281 6.941406 -6.628906 6.941406 -6.480469 L 6.941406 -5.488281 C 6.941406 -5.324219 6.976562 -5.195312 7.085938 -5.085938 C 7.195312 -4.976562 7.324219 -4.9375 7.472656 -4.9375 L 9.710938 -4.9375 C 9.804688 -4.9375 9.878906 -4.902344 9.933594 -4.828125 C 9.96875 -4.753906 9.988281 -4.664062 9.96875 -4.570312 C 9.785156 -4.019531 9.566406 -3.578125 9.269531 -3.25 C 8.976562 -2.917969 8.683594 -2.660156 8.351562 -2.476562 C 8.023438 -2.292969 7.710938 -2.183594 7.417969 -2.148438 C 7.105469 -2.09375 6.847656 -2.074219 6.628906 -2.074219 C 6.332031 -2.074219 5.984375 -2.109375 5.582031 -2.203125 C 5.175781 -2.292969 4.773438 -2.496094 4.386719 -2.828125 C 4.003906 -3.140625 3.671875 -3.597656 3.394531 -4.222656 C 3.121094 -4.828125 2.992188 -5.65625 2.992188 -6.71875 C 2.992188 -7.765625 3.121094 -8.59375 3.394531 -9.214844 C 3.671875 -9.839844 4.003906 -10.300781 4.386719 -10.628906 C 4.773438 -10.941406 5.175781 -11.144531 5.582031 -11.234375 C 5.984375 -11.328125 6.332031 -11.382812 6.628906 -11.382812 C 6.773438 -11.382812 6.957031 -11.363281 7.179688 -11.347656 C 7.398438 -11.308594 7.617188 -11.253906 7.859375 -11.179688 C 8.078125 -11.105469 8.316406 -10.996094 8.554688 -10.851562 C 8.792969 -10.703125 9.015625 -10.5 9.234375 -10.261719 C 9.34375 -10.152344 9.453125 -10.132812 9.582031 -10.207031 L 10.90625 -10.960938 C 10.980469 -10.996094 11.015625 -11.070312 11.035156 -11.144531 C 11.050781 -11.21875 11.035156 -11.289062 10.996094 -11.363281 C 10.484375 -12.0625 9.839844 -12.574219 9.105469 -12.925781 C 8.371094 -13.273438 7.546875 -13.457031 6.628906 -13.457031 C 5.710938 -13.457031 4.863281 -13.273438 4.128906 -12.925781 C 3.394531 -12.574219 2.773438 -12.0625 2.257812 -11.363281 C 1.816406 -10.777344 1.46875 -10.078125 1.25 -9.308594 C 1.027344 -8.519531 0.917969 -7.65625 0.917969 -6.71875 C 0.917969 -4.828125 1.359375 -3.285156 2.257812 -2.074219 C 3.304688 -0.679688 4.753906 0 6.628906 0 C 7.546875 0 8.371094 -0.164062 9.105469 -0.515625 C 9.839844 -0.863281 10.484375 -1.375 10.996094 -2.074219 C 11.472656 -2.734375 11.824219 -3.46875 12.023438 -4.277344 C 12.226562 -5.085938 12.335938 -5.894531 12.335938 -6.738281 C 12.335938 -6.8125 12.300781 -6.867188 12.246094 -6.921875 C 12.191406 -6.976562 12.117188 -7.011719 12.042969 -7.011719 Z M 12.042969 -7.011719 "/></g></g></g><g fill="rgb(0%, 0%, 0%)" fill-opacity="1"><g transform="translate(56.073477, 43.552389)"><g><path d="M 7.527344 -11.914062 L 7.527344 -12.925781 C 7.527344 -13.070312 7.472656 -13.183594 7.363281 -13.292969 C 7.25 -13.402344 7.140625 -13.457031 6.996094 -13.457031 L 1.449219 -13.457031 C 1.304688 -13.457031 1.175781 -13.402344 1.066406 -13.292969 C 0.953125 -13.183594 0.917969 -13.070312 0.917969 -12.925781 L 0.917969 -0.53125 C 0.917969 -0.386719 0.953125 -0.257812 1.066406 -0.148438 C 1.175781 -0.0351562 1.304688 0 1.449219 0 L 6.996094 0 C 7.140625 0 7.25 -0.0351562 7.363281 -0.148438 C 7.472656 -0.257812 7.527344 -0.386719 7.527344 -0.53125 L 7.527344 -1.542969 C 7.527344 -1.6875 7.472656 -1.800781 7.363281 -1.910156 C 7.25 -2.019531 7.140625 -2.074219 6.996094 -2.074219 L 3.523438 -2.074219 C 3.378906 -2.074219 3.25 -2.109375 3.140625 -2.222656 C 3.027344 -2.332031 2.992188 -2.460938 2.992188 -2.605469 L 2.992188 -6.609375 C 2.992188 -6.757812 3.027344 -6.867188 3.140625 -6.976562 C 3.25 -7.085938 3.378906 -7.140625 3.523438 -7.140625 L 5.820312 -7.140625 C 5.964844 -7.140625 6.09375 -7.195312 6.207031 -7.308594 C 6.316406 -7.417969 6.371094 -7.546875 6.371094 -7.691406 L 6.371094 -8.683594 C 6.371094 -8.832031 6.316406 -8.941406 6.207031 -9.050781 C 6.09375 -9.160156 5.964844 -9.214844 5.820312 -9.214844 L 3.523438 -9.214844 C 3.378906 -9.214844 3.25 -9.253906 3.140625 -9.363281 C 3.027344 -9.472656 2.992188 -9.601562 2.992188 -9.75 L 2.992188 -10.851562 C 2.992188 -10.996094 3.027344 -11.105469 3.140625 -11.21875 C 3.25 -11.328125 3.378906 -11.382812 3.523438 -11.382812 L 6.996094 -11.382812 C 7.140625 -11.382812 7.25 -11.417969 7.363281 -11.53125 C 7.472656 -11.640625 7.527344 -11.769531 7.527344 -11.914062 Z M 7.527344 -11.914062 "/></g></g></g><g fill="rgb(0%, 0%, 0%)" fill-opacity="1"><g transform="translate(64.517357, 43.552389)"><g><path d="M 6.664062 -12.925781 L 6.664062 -8.296875 C 6.664062 -8.152344 6.609375 -8.023438 6.5 -7.914062 C 6.390625 -7.800781 6.277344 -7.765625 6.132812 -7.765625 L 3.523438 -7.765625 C 3.378906 -7.765625 3.25 -7.800781 3.140625 -7.914062 C 3.027344 -8.023438 2.992188 -8.152344 2.992188 -8.296875 L 2.992188 -12.925781 C 2.992188 -13.070312 2.9375 -13.183594 2.828125 -13.292969 C 2.71875 -13.402344 2.605469 -13.457031 2.460938 -13.457031 L 1.449219 -13.457031 C 1.304688 -13.457031 1.175781 -13.402344 1.066406 -13.292969 C 0.953125 -13.183594 0.917969 -13.070312 0.917969 -12.925781 L 0.917969 -0.53125 C 0.917969 -0.386719 0.953125 -0.257812 1.066406 -0.148438 C 1.175781 -0.0351562 1.304688 0 1.449219 0 L 2.460938 0 C 2.605469 0 2.71875 -0.0351562 2.828125 -0.148438 C 2.9375 -0.257812 2.992188 -0.386719 2.992188 -0.53125 L 2.992188 -5.160156 C 2.992188 -5.304688 3.027344 -5.414062 3.140625 -5.527344 C 3.25 -5.636719 3.378906 -5.691406 3.523438 -5.691406 L 6.132812 -5.691406 C 6.277344 -5.691406 6.390625 -5.636719 6.5 -5.527344 C 6.609375 -5.414062 6.664062 -5.304688 6.664062 -5.160156 L 6.664062 -0.53125 C 6.664062 -0.386719 6.699219 -0.257812 6.8125 -0.148438 C 6.921875 -0.0351562 7.050781 0 7.214844 0 L 8.207031 0 C 8.351562 0 8.464844 -0.0351562 8.574219 -0.148438 C 8.683594 -0.257812 8.738281 -0.386719 8.738281 -0.53125 L 8.738281 -12.925781 C 8.738281 -13.070312 8.683594 -13.183594 8.574219 -13.292969 C 8.464844 -13.402344 8.351562 -13.457031 8.207031 -13.457031 L 7.214844 -13.457031 C 7.050781 -13.457031 6.921875 -13.402344 6.8125 -13.292969 C 6.699219 -13.183594 6.664062 -13.070312 6.664062 -12.925781 Z M 6.664062 -12.925781 "/></g></g></g><g fill="rgb(0%, 0%, 0%)" fill-opacity="1"><g transform="translate(74.172741, 43.552389)"><g><path d="M 8.5 -11.914062 L 8.5 -12.925781 C 8.5 -13.070312 8.445312 -13.183594 8.335938 -13.292969 C 8.226562 -13.402344 8.097656 -13.457031 7.949219 -13.457031 L 1.449219 -13.457031 C 1.304688 -13.457031 1.175781 -13.402344 1.066406 -13.292969 C 0.953125 -13.183594 0.917969 -13.070312 0.917969 -12.925781 L 0.917969 -11.914062 C 0.917969 -11.769531 0.953125 -11.640625 1.066406 -11.53125 C 1.175781 -11.417969 1.304688 -11.382812 1.449219 -11.382812 L 3.140625 -11.382812 C 3.285156 -11.382812 3.394531 -11.328125 3.507812 -11.21875 C 3.617188 -11.105469 3.671875 -10.996094 3.671875 -10.851562 L 3.671875 -0.53125 C 3.671875 -0.386719 3.707031 -0.257812 3.820312 -0.148438 C 3.929688 -0.0351562 4.058594 0 4.203125 0 L 5.195312 0 C 5.34375 0 5.472656 -0.0351562 5.582031 -0.148438 C 5.691406 -0.257812 5.746094 -0.386719 5.746094 -0.53125 L 5.746094 -10.851562 C 5.746094 -10.996094 5.78125 -11.105469 5.894531 -11.21875 C 6.003906 -11.328125 6.132812 -11.382812 6.277344 -11.382812 L 7.949219 -11.382812 C 8.097656 -11.382812 8.226562 -11.417969 8.335938 -11.53125 C 8.445312 -11.640625 8.5 -11.769531 8.5 -11.914062 Z M 8.5 -11.914062 "/></g></g></g><g fill="rgb(0%, 0%, 0%)" fill-opacity="1"><g transform="translate(21.537726, 68.864888)"><g><path d="M 6.664062 -12.925781 L 6.664062 -8.296875 C 6.664062 -8.152344 6.609375 -8.023438 6.5 -7.914062 C 6.390625 -7.800781 6.277344 -7.765625 6.132812 -7.765625 L 3.523438 -7.765625 C 3.378906 -7.765625 3.25 -7.800781 3.140625 -7.914062 C 3.027344 -8.023438 2.992188 -8.152344 2.992188 -8.296875 L 2.992188 -12.925781 C 2.992188 -13.070312 2.9375 -13.183594 2.828125 -13.292969 C 2.71875 -13.402344 2.605469 -13.457031 2.460938 -13.457031 L 1.449219 -13.457031 C 1.304688 -13.457031 1.175781 -13.402344 1.066406 -13.292969 C 0.953125 -13.183594 0.917969 -13.070312 0.917969 -12.925781 L 0.917969 -0.53125 C 0.917969 -0.386719 0.953125 -0.257812 1.066406 -0.148438 C 1.175781 -0.0351562 1.304688 0 1.449219 0 L 2.460938 0 C 2.605469 0 2.71875 -0.0351562 2.828125 -0.148438 C 2.9375 -0.257812 2.992188 -0.386719 2.992188 -0.53125 L 2.992188 -5.160156 C 2.992188 -5.304688 3.027344 -5.414062 3.140625 -5.527344 C 3.25 -5.636719 3.378906 -5.691406 3.523438 -5.691406 L 6.132812 -5.691406 C 6.277344 -5.691406 6.390625 -5.636719 6.5 -5.527344 C 6.609375 -5.414062 6.664062 -5.304688 6.664062 -5.160156 L 6.664062 -0.53125 C 6.664062 -0.386719 6.699219 -0.257812 6.8125 -0.148438 C 6.921875 -0.0351562 7.050781 0 7.214844 0 L 8.207031 0 C 8.351562 0 8.464844 -0.0351562 8.574219 -0.148438 C 8.683594 -0.257812 8.738281 -0.386719 8.738281 -0.53125 L 8.738281 -12.925781 C 8.738281 -13.070312 8.683594 -13.183594 8.574219 -13.292969 C 8.464844 -13.402344 8.351562 -13.457031 8.207031 -13.457031 L 7.214844 -13.457031 C 7.050781 -13.457031 6.921875 -13.402344 6.8125 -13.292969 C 6.699219 -13.183594 6.664062 -13.070312 6.664062 -12.925781 Z M 6.664062 -12.925781 "/></g></g></g><g fill="rgb(0%, 0%, 0%)" fill-opacity="1"><g transform="translate(31.19311, 68.864888)"><g><path d="M 8.390625 0 L 9.4375 0 C 9.601562 0 9.75 -0.0546875 9.859375 -0.203125 C 9.96875 -0.347656 9.988281 -0.496094 9.949219 -0.679688 C 9.859375 -0.992188 9.785156 -1.230469 9.75 -1.414062 C 9.710938 -1.578125 9.675781 -1.726562 9.636719 -1.871094 C 9.601562 -2 9.546875 -2.148438 9.511719 -2.292969 C 9.472656 -2.441406 9.398438 -2.660156 9.328125 -2.957031 C 9.253906 -3.25 9.144531 -3.636719 9.015625 -4.113281 C 8.886719 -4.589844 8.71875 -5.214844 8.519531 -6.003906 C 8.296875 -6.773438 8.042969 -7.746094 7.730469 -8.902344 C 7.417969 -10.042969 7.050781 -11.4375 6.628906 -13.054688 C 6.589844 -13.164062 6.535156 -13.273438 6.445312 -13.347656 C 6.332031 -13.421875 6.222656 -13.457031 6.113281 -13.457031 L 4.792969 -13.457031 C 4.664062 -13.457031 4.554688 -13.421875 4.460938 -13.347656 C 4.351562 -13.273438 4.296875 -13.164062 4.277344 -13.054688 C 4.167969 -12.703125 4.039062 -12.226562 3.875 -11.601562 C 3.707031 -10.980469 3.523438 -10.300781 3.324219 -9.527344 C 3.121094 -8.757812 2.902344 -7.949219 2.679688 -7.105469 C 2.460938 -6.261719 2.238281 -5.433594 2.019531 -4.625 C 1.800781 -3.820312 1.597656 -3.085938 1.414062 -2.386719 C 1.230469 -1.6875 1.066406 -1.121094 0.953125 -0.679688 C 0.898438 -0.496094 0.9375 -0.347656 1.046875 -0.203125 C 1.15625 -0.0546875 1.285156 0 1.46875 0 L 2.515625 0 C 2.773438 0 2.9375 -0.128906 3.027344 -0.402344 C 3.085938 -0.585938 3.140625 -0.824219 3.210938 -1.101562 C 3.285156 -1.359375 3.359375 -1.671875 3.453125 -2 C 3.523438 -2.257812 3.707031 -2.40625 3.984375 -2.40625 L 6.921875 -2.40625 C 7.179688 -2.40625 7.363281 -2.257812 7.453125 -2 C 7.5625 -1.558594 7.636719 -1.230469 7.710938 -0.972656 C 7.785156 -0.714844 7.839844 -0.53125 7.875 -0.402344 C 7.949219 -0.128906 8.132812 0 8.390625 0 Z M 4.296875 -5.160156 C 4.40625 -5.542969 4.496094 -5.929688 4.609375 -6.332031 C 4.71875 -6.71875 4.828125 -7.105469 4.9375 -7.507812 C 4.976562 -7.636719 5.03125 -7.730469 5.140625 -7.800781 C 5.230469 -7.875 5.34375 -7.914062 5.453125 -7.914062 C 5.5625 -7.914062 5.65625 -7.875 5.765625 -7.800781 C 5.855469 -7.730469 5.929688 -7.636719 5.964844 -7.507812 C 6.078125 -7.066406 6.1875 -6.644531 6.296875 -6.261719 C 6.40625 -5.855469 6.5 -5.488281 6.609375 -5.160156 C 6.644531 -4.976562 6.628906 -4.828125 6.515625 -4.679688 C 6.40625 -4.535156 6.261719 -4.480469 6.09375 -4.480469 L 4.808594 -4.480469 C 4.625 -4.480469 4.496094 -4.535156 4.386719 -4.679688 C 4.277344 -4.828125 4.242188 -4.976562 4.296875 -5.160156 Z M 3.433594 -14.191406 L 4.589844 -14.191406 C 4.71875 -14.191406 4.828125 -14.226562 4.921875 -14.320312 C 4.992188 -14.394531 5.046875 -14.503906 5.046875 -14.652344 L 5.046875 -15.808594 C 5.046875 -15.9375 4.992188 -16.046875 4.921875 -16.136719 C 4.828125 -16.210938 4.71875 -16.265625 4.589844 -16.265625 L 3.433594 -16.265625 C 3.285156 -16.265625 3.175781 -16.210938 3.101562 -16.136719 C 3.011719 -16.046875 2.972656 -15.9375 2.972656 -15.808594 L 2.972656 -14.652344 C 2.972656 -14.503906 3.011719 -14.394531 3.101562 -14.320312 C 3.175781 -14.226562 3.285156 -14.191406 3.433594 -14.191406 Z M 5.894531 -15.808594 L 5.894531 -14.652344 C 5.894531 -14.503906 5.929688 -14.394531 6.023438 -14.320312 C 6.09375 -14.226562 6.207031 -14.191406 6.351562 -14.191406 L 7.507812 -14.191406 C 7.636719 -14.191406 7.746094 -14.226562 7.839844 -14.320312 C 7.914062 -14.394531 7.96875 -14.503906 7.96875 -14.652344 L 7.96875 -15.808594 C 7.96875 -15.9375 7.914062 -16.046875 7.839844 -16.136719 C 7.746094 -16.210938 7.636719 -16.265625 7.507812 -16.265625 L 6.351562 -16.265625 C 6.207031 -16.265625 6.09375 -16.210938 6.023438 -16.136719 C 5.929688 -16.046875 5.894531 -15.9375 5.894531 -15.808594 Z M 5.894531 -15.808594 "/></g></g></g><g fill="rgb(0%, 0%, 0%)" fill-opacity="1"><g transform="translate(42.096725, 68.864888)"><g><path d="M 4.957031 -7.050781 L 9.03125 -12.59375 C 9.160156 -12.757812 9.179688 -12.941406 9.085938 -13.164062 C 8.976562 -13.347656 8.832031 -13.457031 8.609375 -13.457031 L 7.378906 -13.457031 C 7.195312 -13.457031 7.050781 -13.382812 6.941406 -13.238281 L 3.269531 -8.242188 C 3.230469 -8.167969 3.175781 -8.152344 3.101562 -8.1875 C 3.027344 -8.1875 2.992188 -8.242188 2.992188 -8.335938 L 2.992188 -12.90625 C 2.992188 -13.054688 2.9375 -13.183594 2.828125 -13.292969 C 2.71875 -13.402344 2.589844 -13.457031 2.441406 -13.457031 L 1.46875 -13.457031 C 1.304688 -13.457031 1.175781 -13.402344 1.066406 -13.292969 C 0.953125 -13.183594 0.917969 -13.054688 0.917969 -12.90625 L 0.917969 -0.550781 C 0.917969 -0.386719 0.953125 -0.257812 1.066406 -0.148438 C 1.175781 -0.0351562 1.304688 0 1.46875 0 L 2.441406 0 C 2.589844 0 2.71875 -0.0351562 2.828125 -0.148438 C 2.9375 -0.257812 2.992188 -0.386719 2.992188 -0.550781 L 2.992188 -4.3125 C 2.992188 -4.351562 2.992188 -4.386719 3.011719 -4.40625 L 3.324219 -4.808594 C 3.339844 -4.847656 3.378906 -4.882812 3.433594 -4.882812 C 3.46875 -4.882812 3.507812 -4.847656 3.5625 -4.808594 L 6.941406 -0.21875 C 7.050781 -0.0742188 7.195312 0 7.378906 0 L 8.609375 0 C 8.832031 0 8.976562 -0.0898438 9.085938 -0.292969 C 9.179688 -0.496094 9.160156 -0.679688 9.03125 -0.863281 L 4.957031 -6.40625 C 4.882812 -6.5 4.863281 -6.609375 4.863281 -6.71875 C 4.863281 -6.828125 4.882812 -6.941406 4.957031 -7.050781 Z M 4.957031 -7.050781 "/></g></g></g><g fill="rgb(0%, 0%, 0%)" fill-opacity="1"><g transform="translate(52.174301, 68.864888)"><g><path d="M 7.527344 -11.914062 L 7.527344 -12.925781 C 7.527344 -13.070312 7.472656 -13.183594 7.363281 -13.292969 C 7.25 -13.402344 7.140625 -13.457031 6.996094 -13.457031 L 1.449219 -13.457031 C 1.304688 -13.457031 1.175781 -13.402344 1.066406 -13.292969 C 0.953125 -13.183594 0.917969 -13.070312 0.917969 -12.925781 L 0.917969 -0.53125 C 0.917969 -0.386719 0.953125 -0.257812 1.066406 -0.148438 C 1.175781 -0.0351562 1.304688 0 1.449219 0 L 6.996094 0 C 7.140625 0 7.25 -0.0351562 7.363281 -0.148438 C 7.472656 -0.257812 7.527344 -0.386719 7.527344 -0.53125 L 7.527344 -1.542969 C 7.527344 -1.6875 7.472656 -1.800781 7.363281 -1.910156 C 7.25 -2.019531 7.140625 -2.074219 6.996094 -2.074219 L 3.523438 -2.074219 C 3.378906 -2.074219 3.25 -2.109375 3.140625 -2.222656 C 3.027344 -2.332031 2.992188 -2.460938 2.992188 -2.605469 L 2.992188 -6.609375 C 2.992188 -6.757812 3.027344 -6.867188 3.140625 -6.976562 C 3.25 -7.085938 3.378906 -7.140625 3.523438 -7.140625 L 5.820312 -7.140625 C 5.964844 -7.140625 6.09375 -7.195312 6.207031 -7.308594 C 6.316406 -7.417969 6.371094 -7.546875 6.371094 -7.691406 L 6.371094 -8.683594 C 6.371094 -8.832031 6.316406 -8.941406 6.207031 -9.050781 C 6.09375 -9.160156 5.964844 -9.214844 5.820312 -9.214844 L 3.523438 -9.214844 C 3.378906 -9.214844 3.25 -9.253906 3.140625 -9.363281 C 3.027344 -9.472656 2.992188 -9.601562 2.992188 -9.75 L 2.992188 -10.851562 C 2.992188 -10.996094 3.027344 -11.105469 3.140625 -11.21875 C 3.25 -11.328125 3.378906 -11.382812 3.523438 -11.382812 L 6.996094 -11.382812 C 7.140625 -11.382812 7.25 -11.417969 7.363281 -11.53125 C 7.472656 -11.640625 7.527344 -11.769531 7.527344 -11.914062 Z M 7.527344 -11.914062 "/></g></g></g><g fill="rgb(0%, 0%, 0%)" fill-opacity="1"><g transform="translate(60.618181, 68.864888)"><g><path d="M 6.515625 -2.074219 L 3.523438 -2.074219 C 3.378906 -2.074219 3.25 -2.109375 3.140625 -2.222656 C 3.027344 -2.332031 2.992188 -2.460938 2.992188 -2.605469 L 2.992188 -12.925781 C 2.992188 -13.070312 2.9375 -13.183594 2.828125 -13.292969 C 2.71875 -13.402344 2.605469 -13.457031 2.460938 -13.457031 L 1.449219 -13.457031 C 1.304688 -13.457031 1.175781 -13.402344 1.066406 -13.292969 C 0.953125 -13.183594 0.917969 -13.070312 0.917969 -12.925781 L 0.917969 -0.53125 C 0.917969 -0.386719 0.953125 -0.257812 1.066406 -0.148438 C 1.175781 -0.0351562 1.304688 0 1.449219 0 L 6.515625 0 C 6.664062 0 6.773438 -0.0351562 6.882812 -0.148438 C 6.996094 -0.257812 7.050781 -0.386719 7.050781 -0.53125 L 7.050781 -1.542969 C 7.050781 -1.6875 6.996094 -1.800781 6.882812 -1.910156 C 6.773438 -2.019531 6.664062 -2.074219 6.515625 -2.074219 Z M 6.515625 -2.074219 "/></g></g></g><g fill="rgb(0%, 0%, 0%)" fill-opacity="1"><g transform="translate(68.584796, 68.864888)"><g><path d="M 8.941406 -13.457031 L 7.949219 -13.457031 C 7.800781 -13.457031 7.675781 -13.402344 7.5625 -13.292969 C 7.453125 -13.183594 7.398438 -13.070312 7.398438 -12.925781 L 7.398438 -5.378906 C 7.398438 -5.269531 7.34375 -5.195312 7.25 -5.175781 C 7.125 -5.140625 7.050781 -5.175781 7.011719 -5.289062 L 3.339844 -13.144531 C 3.25 -13.347656 3.085938 -13.457031 2.863281 -13.457031 L 1.449219 -13.457031 C 1.304688 -13.457031 1.175781 -13.402344 1.066406 -13.292969 C 0.953125 -13.183594 0.917969 -13.070312 0.917969 -12.925781 L 0.917969 -0.53125 C 0.917969 -0.386719 0.953125 -0.257812 1.066406 -0.148438 C 1.175781 -0.0351562 1.304688 0 1.449219 0 L 2.441406 0 C 2.589844 0 2.71875 -0.0351562 2.828125 -0.148438 C 2.9375 -0.257812 2.992188 -0.386719 2.992188 -0.53125 L 2.992188 -8.078125 C 2.992188 -8.1875 3.046875 -8.242188 3.15625 -8.28125 C 3.269531 -8.296875 3.339844 -8.261719 3.378906 -8.167969 L 7.050781 -0.3125 C 7.140625 -0.0898438 7.308594 0 7.527344 0 L 8.941406 0 C 9.085938 0 9.214844 -0.0546875 9.328125 -0.164062 C 9.417969 -0.257812 9.472656 -0.386719 9.472656 -0.53125 L 9.472656 -12.925781 C 9.472656 -13.070312 9.417969 -13.183594 9.308594 -13.292969 C 9.199219 -13.402344 9.085938 -13.457031 8.941406 -13.457031 Z M 8.941406 -13.457031 "/></g></g></g></svg>